<?xml version="1.0" encoding="UTF-8"?>
<svg width="24" height="24" viewBox="0 0 24 24" fill="none" xmlns="http://www.w3.org/2000/svg">
  <path d="M12 21C11.3 21 10.7 20.8 10.2 20.4L7.5 18.7C6.7 18.2 7 18.1 7.2 18C8 17.7 8.1 17.6 9 17.1C9.1 17 9.2 17.1 9.4 17.1L11.5 18.5C11.7 18.6 11.9 18.6 12.1 18.5L19.4 14.2C19.6 14.1 19.7 13.9 19.7 13.7V5.2C19.7 5 19.6 4.8 19.4 4.7L12.1 0.4C11.9 0.3 11.7 0.3 11.5 0.4L4.2 4.7C4 4.8 3.9 5 3.9 5.2V13.7C3.9 13.9 4 14.1 4.2 14.2L6.3 15.4C7.2 15.9 7.7 15.3 7.7 14.8V5.8C7.7 5.7 7.8 5.5 8 5.5H9C9.2 5.5 9.3 5.6 9.3 5.8V14.8C9.3 16 8.7 16.7 7.5 16.7C7.1 16.7 6.7 16.7 5.9 16.3L3.9 15.2C3.4 14.8 3 14.2 3 13.7V5.2C3 4.6 3.3 4.1 3.9 3.7L11.2 -0.6C11.7 -0.8 12.3 -0.8 12.8 -0.6L20.1 3.7C20.6 4.1 21 4.6 21 5.2V13.7C21 14.3 20.7 14.8 20.1 15.2L12.8 19.5C12.3 20 11.7 20 11.2 19.5L9.1 18.2C9 18.1 8.8 18.1 8.7 18.2C7.9 18.7 7.8 18.8 7 19.1C6.8 19.2 6.5 19.3 7.3 19.8L9.8 21.3C10.3 21.7 10.9 21.9 11.6 21.9C12.3 21.9 12.9 21.7 13.4 21.3L20.7 17C21.3 16.6 21.6 16.1 21.6 15.5V7C21.6 6.4 21.3 5.9 20.7 5.5L13.4 1.2C12.9 0.8 12.3 0.6 11.6 0.6C10.9 0.6 10.3 0.8 9.8 1.2L2.5 5.5C1.9 5.9 1.6 6.4 1.6 7V15.5C1.6 16.1 1.9 16.6 2.5 17L9.8 21.3C10.3 21.7 10.9 21.9 11.6 21.9" stroke="white" stroke-width="2"/>
</svg> 